<svg width="64" height="64" viewBox="0 0 64 64" fill="none" xmlns="http://www.w3.org/2000/svg">
<path d="M0 16C0 7.16344 7.16344 0 16 0H47.9978C56.8343 0 63.9977 7.16344 63.9977 16V47.6531C63.9977 56.4896 56.8343 63.6531 47.9977 63.6531H16C7.16343 63.6531 0 56.4896 0 47.6531V16Z" fill="#FAFAFA"/>
<path d="M27.4988 47.5816C30.3619 47.6103 32.8159 46.5213 34.6607 44.6288C28.9606 44.5717 25.2958 40.6603 25.1604 34.4978C25.1351 33.0874 25.1915 25.5101 25.1915 25.5101L25.2802 16.6614L17.6231 16.5846L17.5033 28.5367C17.467 32.1539 17.4095 35.2768 17.644 37.4405C18.2799 43.4564 21.9367 47.5192 27.4988 47.575L27.4988 47.5816Z" fill="#C54B30"/>
<path d="M38.0115 16.2608C35.1492 16.334 32.7354 17.5097 30.9592 19.4665C36.6577 19.3208 40.4595 23.0993 40.8139 29.253C40.8894 30.6616 41.0118 34.165 41.1159 38.2358L41.342 47.0755L48.9965 46.8666L48.6909 34.9178C48.5984 31.3015 48.5449 28.1786 48.2336 26.0247C47.3708 20.0355 43.5656 16.1187 38.0115 16.2608Z" fill="black"/>
</svg>
